<svg width="15" height="15" viewBox="0 0 15 15" fill="none" xmlns="http://www.w3.org/2000/svg">
<circle cx="7.5" cy="7.5" r="7" stroke="white"/>
<path d="M9.75 10.6328C9.13542 11.0026 8.40625 11.1875 7.5625 11.1875C6.42188 11.1875 5.5 10.8177 4.79688 10.0781C4.09896 9.33333 3.75 8.36979 3.75 7.1875C3.75 5.86979 4.1276 4.8125 4.88281 4.01562C5.63802 3.21354 6.64583 2.8125 7.90625 2.8125C8.60938 2.8125 9.22917 2.94271 9.76562 3.20312V4.51562C9.17188 4.09896 8.53646 3.89062 7.85938 3.89062C7.04167 3.89062 6.36979 4.1849 5.84375 4.77344C5.32292 5.35677 5.0625 6.125 5.0625 7.07812C5.0625 8.01562 5.30729 8.75521 5.79688 9.29688C6.29167 9.83854 6.95312 10.1094 7.78125 10.1094C8.47917 10.1094 9.13542 9.8776 9.75 9.41406V10.6328Z" fill="white"/>
</svg>
