<svg width="30" height="29" viewBox="0 0 30 29" fill="none" xmlns="http://www.w3.org/2000/svg">
<path d="M15 0.817993C10.9294 0.817993 10.4175 0.835603 8.81812 0.902521C7.21875 0.972962 6.12937 1.20894 5.175 1.55762C4.17393 1.91126 3.26717 2.46599 2.51813 3.18302C1.75514 3.88689 1.16458 4.73841 0.7875 5.67837C0.41625 6.57296 0.163125 7.59786 0.09 9.09472C0.01875 10.6004 0 11.0794 0 14.9078C0 18.7327 0.01875 19.2117 0.09 20.7138C0.165 22.2142 0.41625 23.2373 0.7875 24.1337C1.17188 25.06 1.68375 25.8454 2.51813 26.629C3.35063 27.4127 4.18687 27.8952 5.17313 28.2545C6.12937 28.6031 7.21688 28.8409 8.81437 28.9095C10.4156 28.9765 10.9256 28.9941 15 28.9941C19.0744 28.9941 19.5825 28.9765 21.1838 28.9095C22.7794 28.8391 23.8725 28.6031 24.8269 28.2545C25.8273 27.9006 26.7334 27.3459 27.4819 26.629C28.3162 25.8454 28.8281 25.06 29.2125 24.1337C29.5819 23.2373 29.835 22.2142 29.91 20.7138C29.9812 19.2117 30 18.7327 30 14.906C30 11.0794 29.9812 10.6004 29.91 9.09648C29.835 7.59786 29.5819 6.57296 29.2125 5.67837C28.8355 4.73839 28.2449 3.88685 27.4819 3.18302C26.7331 2.46572 25.8262 1.91095 24.825 1.55762C23.8687 1.20894 22.7775 0.971201 21.1819 0.902521C19.5806 0.835603 19.0725 0.817993 14.9963 0.817993H15.0019H15ZM13.6556 3.35736H15.0019C19.0069 3.35736 19.4812 3.36969 21.0619 3.43837C22.5244 3.5 23.3194 3.7307 23.8481 3.92265C24.5475 4.17799 25.0481 4.48441 25.5731 4.97749C26.0981 5.47057 26.4225 5.939 26.6944 6.59761C26.9006 7.09245 27.1444 7.83912 27.21 9.2127C27.2831 10.6972 27.2981 11.1428 27.2981 14.9025C27.2981 18.6623 27.2831 19.1096 27.21 20.5941C27.1444 21.9677 26.8988 22.7126 26.6944 23.2092C26.4539 23.8209 26.07 24.374 25.5712 24.8275C25.0462 25.3206 24.5475 25.6253 23.8463 25.8806C23.3213 26.0743 22.5262 26.3033 21.0619 26.3667C19.4812 26.4336 19.0069 26.4494 15.0019 26.4494C10.9969 26.4494 10.5206 26.4336 8.94 26.3667C7.4775 26.3033 6.68437 26.0743 6.15562 25.8806C5.50406 25.6551 4.91461 25.2952 4.43062 24.8275C3.93141 24.3733 3.54698 23.8196 3.30562 23.2074C3.10125 22.7126 2.85563 21.9659 2.79 20.5923C2.71875 19.1078 2.70375 18.6623 2.70375 14.899C2.70375 11.1375 2.71875 10.6937 2.79 9.20918C2.8575 7.8356 3.10125 7.08893 3.3075 6.59233C3.57938 5.93547 3.90562 5.46529 4.43062 4.9722C4.95563 4.47912 5.45437 4.17447 6.15562 3.91912C6.68437 3.72541 7.4775 3.49648 8.94 3.43309C10.3238 3.37321 10.86 3.3556 13.6556 3.35384V3.35736ZM23.0081 5.69598C22.7717 5.69598 22.5377 5.73971 22.3193 5.82466C22.1009 5.90962 21.9025 6.03415 21.7353 6.19113C21.5682 6.34812 21.4356 6.53448 21.3451 6.73959C21.2547 6.9447 21.2081 7.16453 21.2081 7.38654C21.2081 7.60855 21.2547 7.82838 21.3451 8.03349C21.4356 8.2386 21.5682 8.42497 21.7353 8.58195C21.9025 8.73894 22.1009 8.86346 22.3193 8.94842C22.5377 9.03338 22.7717 9.07711 23.0081 9.07711C23.4855 9.07711 23.9434 8.89899 24.2809 8.58195C24.6185 8.26491 24.8081 7.83491 24.8081 7.38654C24.8081 6.93818 24.6185 6.50817 24.2809 6.19113C23.9434 5.87409 23.4855 5.69598 23.0081 5.69598ZM15.0019 7.67183C13.9801 7.65685 12.9654 7.83293 12.0168 8.18981C11.0682 8.54669 10.2047 9.07723 9.47653 9.75056C8.74835 10.4239 8.17006 11.2265 7.77533 12.1118C7.3806 12.997 7.17731 13.9472 7.17731 14.9069C7.17731 15.8667 7.3806 16.8168 7.77533 17.7021C8.17006 18.5873 8.74835 19.3899 9.47653 20.0633C10.2047 20.7366 11.0682 21.2671 12.0168 21.624C12.9654 21.9809 13.9801 22.157 15.0019 22.142C17.0241 22.1124 18.9529 21.3371 20.3718 19.9835C21.7908 18.6298 22.5861 16.8065 22.5861 14.9069C22.5861 13.0074 21.7908 11.184 20.3718 9.83038C18.9529 8.47676 17.0241 7.70146 15.0019 7.67183ZM15.0019 10.2094C16.3281 10.2094 17.6001 10.7043 18.5379 11.585C19.4757 12.4658 20.0025 13.6604 20.0025 14.906C20.0025 16.1517 19.4757 17.3462 18.5379 18.227C17.6001 19.1078 16.3281 19.6026 15.0019 19.6026C13.6756 19.6026 12.4037 19.1078 11.4659 18.227C10.5281 17.3462 10.0013 16.1517 10.0013 14.906C10.0013 13.6604 10.5281 12.4658 11.4659 11.585C12.4037 10.7043 13.6756 10.2094 15.0019 10.2094Z" fill="#535151"/>
</svg>
