<svg width="30" height="31" viewBox="0 0 30 31" fill="none" xmlns="http://www.w3.org/2000/svg">
<path d="M15 0.920288C10.9294 0.920288 10.4175 0.939038 8.81813 1.01029C7.21875 1.08529 6.12937 1.33654 5.175 1.70779C4.17393 2.08432 3.26717 2.67496 2.51813 3.43841C1.75514 4.18784 1.16458 5.09449 0.7875 6.09529C0.41625 7.04779 0.163125 8.13904 0.09 9.73279C0.01875 11.3359 0 11.8459 0 15.9222C0 19.9947 0.01875 20.5047 0.09 22.104C0.165 23.7015 0.41625 24.7909 0.7875 25.7453C1.17187 26.7315 1.68375 27.5678 2.51813 28.4022C3.35063 29.2365 4.18688 29.7503 5.17313 30.1328C6.12938 30.504 7.21688 30.7572 8.81438 30.8303C10.4156 30.9015 10.9256 30.9203 15 30.9203C19.0744 30.9203 19.5825 30.9015 21.1838 30.8303C22.7794 30.7553 23.8725 30.504 24.8269 30.1328C25.8273 29.7561 26.7334 29.1654 27.4819 28.4022C28.3162 27.5678 28.8281 26.7315 29.2125 25.7453C29.5819 24.7909 29.835 23.7015 29.91 22.104C29.9812 20.5047 30 19.9947 30 15.9203C30 11.8459 29.9812 11.3359 29.91 9.73466C29.835 8.13904 29.5819 7.04779 29.2125 6.09529C28.8355 5.09446 28.2449 4.18781 27.4819 3.43841C26.7331 2.67468 25.8262 2.084 24.825 1.70779C23.8687 1.33654 22.7775 1.08341 21.1819 1.01029C19.5806 0.939038 19.0725 0.920288 14.9963 0.920288H15.0019H15ZM13.6556 3.62404H15.0019C19.0069 3.62404 19.4812 3.63716 21.0619 3.71029C22.5244 3.77591 23.3194 4.02154 23.8481 4.22591C24.5475 4.49779 25.0481 4.82404 25.5731 5.34904C26.0981 5.87404 26.4225 6.37279 26.6944 7.07404C26.9006 7.60091 27.1444 8.39591 27.21 9.85841C27.2831 11.439 27.2981 11.9134 27.2981 15.9165C27.2981 19.9197 27.2831 20.3959 27.21 21.9765C27.1444 23.439 26.8988 24.2322 26.6944 24.7609C26.4539 25.4122 26.07 26.0011 25.5712 26.484C25.0462 27.009 24.5475 27.3334 23.8463 27.6053C23.3213 27.8115 22.5262 28.0553 21.0619 28.1228C19.4812 28.194 19.0069 28.2109 15.0019 28.2109C10.9969 28.2109 10.5206 28.194 8.94 28.1228C7.4775 28.0553 6.68437 27.8115 6.15562 27.6053C5.50406 27.3651 4.91461 26.982 4.43062 26.484C3.93141 26.0004 3.54698 25.4109 3.30563 24.759C3.10125 24.2322 2.85563 23.4372 2.79 21.9747C2.71875 20.394 2.70375 19.9197 2.70375 15.9128C2.70375 11.9078 2.71875 11.4353 2.79 9.85466C2.8575 8.39216 3.10125 7.59716 3.3075 7.06841C3.57938 6.36904 3.90562 5.86841 4.43062 5.34341C4.95562 4.81841 5.45437 4.49404 6.15562 4.22216C6.68437 4.01591 7.4775 3.77216 8.94 3.70466C10.3238 3.64091 10.86 3.62216 13.6556 3.62029V3.62404V3.62404ZM23.0081 6.11404C22.7717 6.11404 22.5377 6.1606 22.3193 6.25106C22.1009 6.34151 21.9025 6.4741 21.7353 6.64125C21.5682 6.80839 21.4356 7.00682 21.3451 7.22521C21.2547 7.44359 21.2081 7.67766 21.2081 7.91404C21.2081 8.15042 21.2547 8.38448 21.3451 8.60287C21.4356 8.82125 21.5682 9.01968 21.7353 9.18683C21.9025 9.35398 22.1009 9.48656 22.3193 9.57702C22.5377 9.66748 22.7717 9.71404 23.0081 9.71404C23.4855 9.71404 23.9434 9.5244 24.2809 9.18683C24.6185 8.84926 24.8081 8.39143 24.8081 7.91404C24.8081 7.43665 24.6185 6.97881 24.2809 6.64125C23.9434 6.30368 23.4855 6.11404 23.0081 6.11404V6.11404ZM15.0019 8.21779C13.9801 8.20185 12.9654 8.38932 12.0168 8.7693C11.0682 9.14928 10.2047 9.71417 9.47653 10.4311C8.74835 11.148 8.17006 12.0026 7.77533 12.9452C7.3806 13.8877 7.17731 14.8994 7.17731 15.9212C7.17731 16.9431 7.3806 17.9548 7.77533 18.8973C8.17006 19.8399 8.74835 20.6945 9.47653 21.4114C10.2047 22.1283 11.0682 22.6932 12.0168 23.0731C12.9654 23.4531 13.9801 23.6406 15.0019 23.6247C17.0241 23.5931 18.9529 22.7676 20.3718 21.3264C21.7908 19.8851 22.5861 17.9437 22.5861 15.9212C22.5861 13.8987 21.7908 11.9573 20.3718 10.5161C18.9529 9.07483 17.0241 8.24934 15.0019 8.21779V8.21779ZM15.0019 10.9197C16.3281 10.9197 17.6001 11.4465 18.5379 12.3843C19.4757 13.3221 20.0025 14.594 20.0025 15.9203C20.0025 17.2465 19.4757 18.5185 18.5379 19.4563C17.6001 20.3941 16.3281 20.9209 15.0019 20.9209C13.6756 20.9209 12.4037 20.3941 11.4659 19.4563C10.5281 18.5185 10.0013 17.2465 10.0013 15.9203C10.0013 14.594 10.5281 13.3221 11.4659 12.3843C12.4037 11.4465 13.6756 10.9197 15.0019 10.9197V10.9197Z" fill="white"/>
</svg>
