<svg width="30" height="31" viewBox="0 0 30 31" fill="none" xmlns="http://www.w3.org/2000/svg">
<path d="M0 3.10896C0 1.92208 0.98625 0.960205 2.20312 0.960205H27.7969C29.0137 0.960205 30 1.92208 30 3.10896V28.8115C30 29.9983 29.0137 30.9602 27.7969 30.9602H2.20312C0.98625 30.9602 0 29.9983 0 28.8115V3.10896ZM9.26812 26.074V12.5271H4.76625V26.074H9.26812ZM7.01813 10.6765C8.5875 10.6765 9.56437 9.63771 9.56437 8.33646C9.53625 7.00708 8.58938 5.99646 7.04813 5.99646C5.50688 5.99646 4.5 7.00896 4.5 8.33646C4.5 9.63771 5.47688 10.6765 6.98812 10.6765H7.01813V10.6765ZM16.2206 26.074V18.5083C16.2206 18.1033 16.2506 17.6983 16.3706 17.4096C16.695 16.6015 17.4356 15.7633 18.6806 15.7633C20.31 15.7633 20.9606 17.0046 20.9606 18.8271V26.074H25.4625V18.304C25.4625 14.1415 23.2425 12.2065 20.28 12.2065C17.8912 12.2065 16.8206 13.519 16.2206 14.4433V14.4902H16.1906C16.2006 14.4746 16.2106 14.4589 16.2206 14.4433V12.5271H11.7206C11.7769 13.7983 11.7206 26.074 11.7206 26.074H16.2206Z" fill="white"/>
</svg>
