<svg width="30" height="30" viewBox="0 0 30 30" fill="none" xmlns="http://www.w3.org/2000/svg">
<path d="M0 2.87602C0 1.76131 0.98625 0.85791 2.20312 0.85791H27.7969C29.0138 0.85791 30 1.76131 30 2.87602V27.0159C30 28.1306 29.0138 29.034 27.7969 29.034H2.20312C0.98625 29.034 0 28.1306 0 27.0159V2.87602ZM9.26812 24.4448V11.7216H4.76625V24.4448H9.26812ZM7.01813 9.98344C8.5875 9.98344 9.56437 9.00784 9.56437 7.7857C9.53625 6.53715 8.58938 5.58797 7.04813 5.58797C5.50688 5.58797 4.5 6.53891 4.5 7.7857C4.5 9.00784 5.47687 9.98344 6.98812 9.98344H7.01813ZM16.2206 24.4448V17.3392C16.2206 16.9588 16.2506 16.5784 16.3706 16.3072C16.695 15.5482 17.4356 14.761 18.6806 14.761C20.31 14.761 20.9606 15.9268 20.9606 17.6385V24.4448H25.4625V17.1472C25.4625 13.2378 23.2425 11.4204 20.28 11.4204C17.8913 11.4204 16.8206 12.6531 16.2206 13.5213V13.5653H16.1906C16.2006 13.5506 16.2106 13.5359 16.2206 13.5213V11.7216H11.7206C11.7769 12.9155 11.7206 24.4448 11.7206 24.4448H16.2206Z" fill="#535151"/>
</svg>
