<svg width="30" height="31" viewBox="0 0 30 31" fill="none" xmlns="http://www.w3.org/2000/svg">
<path d="M9.42375 30.8804C20.745 30.8804 26.9381 19.3356 26.9381 9.34152C26.9381 9.01846 26.9381 8.69078 26.9269 8.36772C28.1326 7.29352 29.1732 5.96359 30 4.44024C28.8737 5.0514 27.6802 5.4542 26.4581 5.63556C27.7454 4.68862 28.7095 3.1987 29.1712 1.44271C27.9619 2.32449 26.6382 2.94349 25.2581 3.27261C24.3303 2.05658 23.1026 1.25099 21.7652 0.980636C20.4277 0.710281 19.0551 0.990245 17.86 1.77716C16.6649 2.56408 15.714 3.81403 15.1546 5.33341C14.5952 6.85279 14.4585 8.55679 14.7656 10.1815C12.3183 10.0304 9.92403 9.24799 7.7382 7.88485C5.55238 6.52171 3.62378 4.60833 2.0775 2.26882C1.29251 3.93738 1.05295 5.91109 1.40746 7.78914C1.76197 9.66719 2.68398 11.3088 3.98625 12.3806C3.01039 12.3398 2.05598 12.0173 1.2 11.4391V11.5429C1.20168 13.2909 1.6937 14.9845 2.59289 16.3375C3.49208 17.6905 4.74328 18.62 6.135 18.9687C5.60674 19.1478 5.06106 19.2371 4.51312 19.2341C4.12684 19.2355 3.74134 19.1915 3.36188 19.1025C3.75523 20.6072 4.52114 21.9228 5.55234 22.865C6.58354 23.8072 7.82838 24.3288 9.1125 24.3569C6.93104 26.4655 4.23638 27.6092 1.4625 27.6036C0.973726 27.6062 0.485293 27.5715 0 27.4998C2.81534 29.7087 6.08493 30.8816 9.42375 30.8804Z" fill="white"/>
</svg>
