<svg width="30" height="29" viewBox="0 0 30 29" fill="none" xmlns="http://www.w3.org/2000/svg">
<path d="M9.42375 28.9542C20.745 28.9542 26.9381 18.1113 26.9381 8.72481C26.9381 8.42139 26.9381 8.11364 26.9269 7.81022C28.1326 6.80132 29.1732 5.55225 30 4.12152C28.8737 4.69552 27.6802 5.07383 26.4581 5.24417C27.7454 4.3548 28.7095 2.95545 29.1712 1.30623C27.9619 2.13439 26.6382 2.71576 25.2581 3.02488C24.3303 1.88277 23.1026 1.12616 21.7652 0.872246C20.4277 0.618327 19.0551 0.88127 17.86 1.62035C16.6649 2.35942 15.714 3.53338 15.1546 4.96038C14.5952 6.38739 14.4585 7.98779 14.7656 9.5137C12.3183 9.37185 9.92403 8.63697 7.7382 7.3567C5.55238 6.07644 3.62378 4.27939 2.0775 2.08211C1.29251 3.64923 1.05295 5.50294 1.40746 7.26681C1.76197 9.03068 2.68398 10.5725 3.98625 11.5791C3.01039 11.5408 2.05598 11.2379 1.2 10.6949V10.7924C1.20168 12.4341 1.6937 14.0247 2.59289 15.2955C3.49208 16.5662 4.74328 17.4391 6.135 17.7667C5.60674 17.9349 5.06106 18.0188 4.51312 18.0159C4.12684 18.0173 3.74134 17.9759 3.36188 17.8924C3.75523 19.3056 4.52114 20.5412 5.55234 21.4261C6.58354 22.311 7.82838 22.8009 9.1125 22.8273C6.93104 24.8077 4.23638 25.8818 1.4625 25.8766C0.973726 25.879 0.485293 25.8464 0 25.7791C2.81534 27.8538 6.08493 28.9553 9.42375 28.9542Z" fill="#535151"/>
</svg>
